<svg xmlns="http://www.w3.org/2000/svg" viewBox="0 0 32 32" fill="none">
  <rect width="32" height="32" rx="8" fill="#2563EB"/>
  <path d="M10 11.5C10 10.1193 11.1193 9 12.5 9H13.5C14.8807 9 16 10.1193 16 11.5V12.5C16 13.8807 14.8807 15 13.5 15H12.5C11.1193 15 10 13.8807 10 12.5V11.5Z" fill="white" opacity="0.9"/>
  <path d="M16 11.5C16 10.1193 17.1193 9 18.5 9H19.5C20.8807 9 22 10.1193 22 11.5V12.5C22 13.8807 20.8807 15 19.5 15H18.5C17.1193 15 16 13.8807 16 12.5V11.5Z" fill="white" opacity="0.9"/>
  <ellipse cx="16" cy="19" rx="6" ry="5" fill="white" opacity="0.15"/>
  <circle cx="13" cy="12" r="1.5" fill="#1e40af"/>
  <circle cx="19" cy="12" r="1.5" fill="#1e40af"/>
  <ellipse cx="16" cy="17.5" rx="2" ry="1.2" fill="white" opacity="0.7"/>
  <path d="M14.5 18.5C15 19.5 17 19.5 17.5 18.5" stroke="white" stroke-width="0.8" stroke-linecap="round" opacity="0.6"/>
</svg>
